<svg width="1440" height="93" viewBox="0 0 1440 93" fill="none" xmlns="http://www.w3.org/2000/svg">
<rect width="1440" height="93" fill="#F0F0F0"/>
<path d="M675.845 21.3153V19.9091H685.663V21.3153H681.546V33H679.961V21.3153H675.845ZM689.158 33.2045C688.212 33.2045 687.395 32.9957 686.709 32.5781C686.028 32.1562 685.501 31.5682 685.131 30.8139C684.764 30.0554 684.581 29.1733 684.581 28.1676C684.581 27.1619 684.764 26.2756 685.131 25.5085C685.501 24.7372 686.017 24.1364 686.677 23.706C687.342 23.2713 688.118 23.054 689.004 23.054C689.516 23.054 690.02 23.1392 690.519 23.3097C691.018 23.4801 691.471 23.7571 691.881 24.1406C692.29 24.5199 692.616 25.0227 692.859 25.6491C693.101 26.2756 693.223 27.0469 693.223 27.9631V28.6023H685.655V27.2983H691.689C691.689 26.7443 691.578 26.25 691.356 25.8153C691.139 25.3807 690.828 25.0376 690.423 24.7862C690.023 24.5348 689.55 24.4091 689.004 24.4091C688.403 24.4091 687.883 24.5582 687.444 24.8565C687.01 25.1506 686.675 25.5341 686.441 26.0071C686.207 26.4801 686.089 26.9872 686.089 27.5284V28.3977C686.089 29.1392 686.217 29.7678 686.473 30.2834C686.733 30.7947 687.093 31.1847 687.553 31.4531C688.013 31.7173 688.548 31.8494 689.158 31.8494C689.554 31.8494 689.912 31.794 690.231 31.6832C690.555 31.5682 690.834 31.3977 691.069 31.1719C691.303 30.9418 691.484 30.6562 691.612 30.3153L693.069 30.7244C692.916 31.2188 692.658 31.6534 692.296 32.0284C691.934 32.3991 691.486 32.6889 690.954 32.8977C690.421 33.1023 689.822 33.2045 689.158 33.2045ZM694.078 33V23.1818H695.535V24.7159H695.663C695.867 24.1918 696.198 23.7848 696.654 23.495C697.11 23.201 697.657 23.054 698.296 23.054C698.944 23.054 699.483 23.201 699.914 23.495C700.348 23.7848 700.687 24.1918 700.93 24.7159H701.032C701.284 24.2088 701.661 23.8061 702.164 23.5078C702.666 23.2053 703.269 23.054 703.973 23.054C704.85 23.054 705.568 23.3288 706.127 23.8786C706.685 24.424 706.964 25.2741 706.964 26.429V33H705.455V26.429C705.455 25.7045 705.257 25.1868 704.861 24.8757C704.465 24.5646 703.998 24.4091 703.461 24.4091C702.771 24.4091 702.236 24.6179 701.857 25.0355C701.478 25.4489 701.288 25.973 701.288 26.608V33H699.754V26.2756C699.754 25.7173 699.573 25.2678 699.21 24.9268C698.848 24.5817 698.382 24.4091 697.811 24.4091C697.419 24.4091 697.052 24.5135 696.711 24.7223C696.375 24.9311 696.102 25.2209 695.893 25.5916C695.688 25.9581 695.586 26.3821 695.586 26.8636V33H694.078ZM708.282 36.6818V23.1818H709.74V24.7415H709.919C710.029 24.571 710.183 24.3537 710.379 24.0895C710.579 23.821 710.865 23.5824 711.235 23.3736C711.61 23.1605 712.117 23.054 712.757 23.054C713.583 23.054 714.312 23.2607 714.943 23.674C715.573 24.0874 716.066 24.6733 716.419 25.4318C716.773 26.1903 716.95 27.0852 716.95 28.1165C716.95 29.1562 716.773 30.0575 716.419 30.8203C716.066 31.5788 715.575 32.1669 714.949 32.5845C714.323 32.9979 713.6 33.2045 712.782 33.2045C712.151 33.2045 711.647 33.1001 711.267 32.8913C710.888 32.6783 710.596 32.4375 710.392 32.169C710.187 31.8963 710.029 31.6705 709.919 31.4915H709.791V36.6818H708.282ZM709.765 28.0909C709.765 28.8324 709.874 29.4865 710.091 30.0533C710.308 30.6158 710.626 31.0568 711.044 31.3764C711.461 31.6918 711.973 31.8494 712.578 31.8494C713.208 31.8494 713.735 31.6832 714.156 31.3509C714.583 31.0142 714.902 30.5625 715.115 29.9957C715.333 29.4247 715.441 28.7898 715.441 28.0909C715.441 27.4006 715.335 26.7784 715.122 26.2244C714.913 25.6662 714.595 25.2251 714.169 24.9013C713.747 24.5732 713.217 24.4091 712.578 24.4091C711.964 24.4091 711.448 24.5646 711.031 24.8757C710.613 25.1825 710.298 25.6129 710.085 26.1669C709.872 26.7166 709.765 27.358 709.765 28.0909ZM719.319 19.9091V33H717.811V19.9091H719.319ZM723.532 33.2301C722.909 33.2301 722.345 33.1129 721.838 32.8786C721.331 32.6399 720.928 32.2969 720.63 31.8494C720.331 31.3977 720.182 30.8523 720.182 30.2131C720.182 29.6506 720.293 29.1946 720.515 28.8452C720.736 28.4915 721.032 28.2145 721.403 28.0142C721.774 27.8139 722.183 27.6648 722.63 27.5668C723.082 27.4645 723.536 27.3835 723.992 27.3239C724.588 27.2472 725.072 27.1896 725.443 27.1513C725.818 27.1087 726.091 27.0384 726.261 26.9403C726.436 26.8423 726.523 26.6719 726.523 26.429V26.3778C726.523 25.7472 726.35 25.2571 726.005 24.9077C725.664 24.5582 725.147 24.3835 724.452 24.3835C723.732 24.3835 723.167 24.5412 722.758 24.8565C722.349 25.1719 722.061 25.5085 721.895 25.8665L720.463 25.3551C720.719 24.7585 721.06 24.294 721.486 23.9616C721.917 23.625 722.385 23.3906 722.892 23.2585C723.404 23.1222 723.907 23.054 724.401 23.054C724.716 23.054 725.078 23.0923 725.488 23.169C725.901 23.2415 726.299 23.3928 726.683 23.6229C727.071 23.853 727.392 24.2003 727.648 24.6648C727.904 25.1293 728.032 25.7514 728.032 26.5312V33H726.523V31.6705H726.446C726.344 31.8835 726.174 32.1115 725.935 32.3544C725.696 32.5973 725.379 32.804 724.983 32.9744C724.586 33.1449 724.103 33.2301 723.532 33.2301ZM723.762 31.875C724.358 31.875 724.861 31.7578 725.27 31.5234C725.684 31.2891 725.995 30.9865 726.203 30.6158C726.417 30.245 726.523 29.8551 726.523 29.446V28.0653C726.459 28.142 726.319 28.2124 726.101 28.2763C725.888 28.3359 725.641 28.3892 725.36 28.4361C725.083 28.4787 724.812 28.517 724.548 28.5511C724.288 28.581 724.077 28.6065 723.915 28.6278C723.523 28.679 723.157 28.7621 722.816 28.8771C722.479 28.9879 722.206 29.1562 721.998 29.3821C721.793 29.6037 721.691 29.9062 721.691 30.2898C721.691 30.8139 721.885 31.2102 722.272 31.4787C722.664 31.7429 723.161 31.875 723.762 31.875ZM733.615 23.1818V24.4602H728.527V23.1818H733.615ZM730.01 20.8295H731.518V30.1875C731.518 30.6136 731.58 30.9332 731.704 31.1463C731.831 31.3551 731.993 31.4957 732.189 31.5682C732.39 31.6364 732.601 31.6705 732.822 31.6705C732.988 31.6705 733.125 31.6619 733.231 31.6449C733.338 31.6236 733.423 31.6065 733.487 31.5938L733.794 32.9489C733.692 32.9872 733.549 33.0256 733.366 33.0639C733.182 33.1065 732.95 33.1278 732.669 33.1278C732.243 33.1278 731.825 33.0362 731.416 32.853C731.011 32.6697 730.675 32.3906 730.406 32.0156C730.142 31.6406 730.01 31.1676 730.01 30.5966V20.8295ZM738.455 33.2045C737.509 33.2045 736.693 32.9957 736.007 32.5781C735.325 32.1562 734.799 31.5682 734.428 30.8139C734.062 30.0554 733.878 29.1733 733.878 28.1676C733.878 27.1619 734.062 26.2756 734.428 25.5085C734.799 24.7372 735.314 24.1364 735.975 23.706C736.64 23.2713 737.415 23.054 738.302 23.054C738.813 23.054 739.318 23.1392 739.817 23.3097C740.315 23.4801 740.769 23.7571 741.178 24.1406C741.587 24.5199 741.913 25.0227 742.156 25.6491C742.399 26.2756 742.52 27.0469 742.52 27.9631V28.6023H734.952V27.2983H740.986C740.986 26.7443 740.875 26.25 740.654 25.8153C740.437 25.3807 740.125 25.0376 739.721 24.7862C739.32 24.5348 738.847 24.4091 738.302 24.4091C737.701 24.4091 737.181 24.5582 736.742 24.8565C736.307 25.1506 735.973 25.5341 735.738 26.0071C735.504 26.4801 735.387 26.9872 735.387 27.5284V28.3977C735.387 29.1392 735.515 29.7678 735.77 30.2834C736.03 30.7947 736.39 31.1847 736.851 31.4531C737.311 31.7173 737.846 31.8494 738.455 31.8494C738.851 31.8494 739.209 31.794 739.529 31.6832C739.853 31.5682 740.132 31.3977 740.366 31.1719C740.601 30.9418 740.782 30.6562 740.91 30.3153L742.367 30.7244C742.214 31.2188 741.956 31.6534 741.594 32.0284C741.231 32.3991 740.784 32.6889 740.251 32.8977C739.719 33.1023 739.12 33.2045 738.455 33.2045ZM747.202 33V19.9091H748.711V24.7415H748.839C748.949 24.571 749.103 24.3537 749.299 24.0895C749.499 23.821 749.785 23.5824 750.155 23.3736C750.53 23.1605 751.037 23.054 751.677 23.054C752.503 23.054 753.232 23.2607 753.863 23.674C754.493 24.0874 754.986 24.6733 755.339 25.4318C755.693 26.1903 755.87 27.0852 755.87 28.1165C755.87 29.1562 755.693 30.0575 755.339 30.8203C754.986 31.5788 754.495 32.1669 753.869 32.5845C753.243 32.9979 752.52 33.2045 751.702 33.2045C751.071 33.2045 750.567 33.1001 750.187 32.8913C749.808 32.6783 749.516 32.4375 749.312 32.169C749.107 31.8963 748.949 31.6705 748.839 31.4915H748.66V33H747.202ZM748.685 28.0909C748.685 28.8324 748.794 29.4865 749.011 30.0533C749.228 30.6158 749.546 31.0568 749.964 31.3764C750.381 31.6918 750.893 31.8494 751.498 31.8494C752.128 31.8494 752.655 31.6832 753.076 31.3509C753.503 31.0142 753.822 30.5625 754.035 29.9957C754.253 29.4247 754.361 28.7898 754.361 28.0909C754.361 27.4006 754.255 26.7784 754.042 26.2244C753.833 25.6662 753.515 25.2251 753.089 24.9013C752.667 24.5732 752.137 24.4091 751.498 24.4091C750.884 24.4091 750.368 24.5646 749.951 24.8757C749.533 25.1825 749.218 25.6129 749.005 26.1669C748.792 26.7166 748.685 27.358 748.685 28.0909ZM757.357 36.6818C757.102 36.6818 756.874 36.6605 756.673 36.6179C756.473 36.5795 756.335 36.5412 756.258 36.5028L756.641 35.1733C757.008 35.267 757.332 35.3011 757.613 35.2756C757.894 35.25 758.144 35.1243 758.361 34.8984C758.582 34.6768 758.785 34.3168 758.968 33.8182L759.249 33.0511L755.619 23.1818H757.255L759.965 31.0057H760.068L762.778 23.1818H764.414L760.247 34.4318C760.059 34.9389 759.827 35.3587 759.55 35.6911C759.273 36.0277 758.951 36.277 758.585 36.4389C758.222 36.6009 757.813 36.6818 757.357 36.6818ZM641.626 62V43.0909H654.146V46.3871H645.624V50.8928H653.315V54.1889H645.624V62H641.626ZM654.755 62V43.0909H658.753V51.4283H659.003L665.807 43.0909H670.599L663.582 51.5575L670.682 62H665.9L660.72 54.2259L658.753 56.6264V62H654.755ZM671.7 62L667.841 47.8182H671.82L674.017 57.3466H674.147L676.436 47.8182H680.342L682.669 57.2912H682.789L684.949 47.8182H688.919L685.069 62H680.905L678.468 53.081H678.292L675.855 62H671.7ZM695.045 62.277C693.586 62.277 692.331 61.9815 691.278 61.3906C690.232 60.7936 689.425 59.9503 688.859 58.8608C688.293 57.7652 688.01 56.4695 688.01 54.9737C688.01 53.5149 688.293 52.2346 688.859 51.1328C689.425 50.031 690.223 49.1723 691.25 48.5568C692.285 47.9413 693.497 47.6335 694.888 47.6335C695.824 47.6335 696.695 47.7843 697.501 48.0859C698.314 48.3814 699.022 48.8277 699.625 49.4247C700.234 50.0218 700.708 50.7727 701.047 51.6776C701.385 52.5762 701.554 53.6288 701.554 54.8352V55.9155H689.579V53.478H697.852C697.852 52.9117 697.729 52.41 697.483 51.973C697.236 51.536 696.895 51.1944 696.458 50.9482C696.027 50.6958 695.525 50.5696 694.953 50.5696C694.356 50.5696 693.826 50.7081 693.365 50.9851C692.909 51.2559 692.552 51.6222 692.294 52.0838C692.035 52.5393 691.903 53.0471 691.897 53.6072V55.9247C691.897 56.6264 692.026 57.2327 692.285 57.7436C692.549 58.2545 692.922 58.6484 693.402 58.9254C693.882 59.2024 694.451 59.3409 695.11 59.3409C695.547 59.3409 695.947 59.2794 696.31 59.1562C696.673 59.0331 696.984 58.8485 697.243 58.6023C697.501 58.3561 697.698 58.0545 697.834 57.6974L701.471 57.9375C701.287 58.8116 700.908 59.5748 700.336 60.2273C699.769 60.8736 699.037 61.3783 698.138 61.7415C697.246 62.0985 696.215 62.277 695.045 62.277ZM702.115 62V43.0909H706.048V50.2003H706.168C706.341 49.8187 706.59 49.4309 706.916 49.0369C707.249 48.6368 707.679 48.3045 708.209 48.0398C708.744 47.7689 709.409 47.6335 710.203 47.6335C711.237 47.6335 712.191 47.9044 713.065 48.446C713.939 48.9815 714.638 49.791 715.161 50.8743C715.684 51.9515 715.946 53.3026 715.946 54.9276C715.946 56.5095 715.691 57.8452 715.18 58.9347C714.675 60.018 713.986 60.8397 713.111 61.3999C712.244 61.9538 711.271 62.2308 710.194 62.2308C709.431 62.2308 708.781 62.1046 708.246 61.8523C707.716 61.5999 707.282 61.2829 706.944 60.9013C706.605 60.5135 706.347 60.1226 706.168 59.7287H705.993V62H702.115ZM705.965 54.9091C705.965 55.7524 706.082 56.4879 706.316 57.1158C706.55 57.7436 706.888 58.233 707.332 58.5838C707.775 58.9285 708.313 59.1009 708.947 59.1009C709.588 59.1009 710.129 58.9254 710.572 58.5746C711.016 58.2176 711.351 57.7251 711.579 57.0973C711.813 56.4633 711.93 55.7339 711.93 54.9091C711.93 54.0904 711.816 53.3703 711.588 52.7486C711.36 52.1269 711.025 51.6406 710.582 51.2898C710.138 50.9389 709.594 50.7635 708.947 50.7635C708.307 50.7635 707.766 50.9328 707.322 51.2713C706.885 51.6098 706.55 52.09 706.316 52.7116C706.082 53.3333 705.965 54.0658 705.965 54.9091ZM718.789 62.2401C718.18 62.2401 717.657 62.0246 717.22 61.5938C716.789 61.1567 716.574 60.6335 716.574 60.0241C716.574 59.4209 716.789 58.9039 717.22 58.473C717.657 58.0421 718.18 57.8267 718.789 57.8267C719.38 57.8267 719.897 58.0421 720.341 58.473C720.784 58.9039 721.005 59.4209 721.005 60.0241C721.005 60.4304 720.901 60.8028 720.691 61.1413C720.488 61.4737 720.221 61.7415 719.888 61.9446C719.556 62.1416 719.19 62.2401 718.789 62.2401ZM728.562 62.277C727.11 62.277 725.86 61.9692 724.814 61.3537C723.773 60.732 722.973 59.8703 722.413 58.7685C721.859 57.6667 721.582 56.3987 721.582 54.9645C721.582 53.5118 721.862 52.2377 722.422 51.142C722.989 50.0402 723.792 49.1816 724.832 48.5661C725.872 47.9444 727.11 47.6335 728.544 47.6335C729.781 47.6335 730.864 47.8582 731.794 48.3075C732.723 48.7569 733.459 49.3878 734.001 50.2003C734.542 51.0128 734.841 51.9669 734.896 53.0625H731.184C731.08 52.3546 730.803 51.7853 730.353 51.3544C729.91 50.9174 729.329 50.6989 728.608 50.6989C727.999 50.6989 727.467 50.8651 727.011 51.1974C726.562 51.5237 726.211 52.0007 725.959 52.6286C725.706 53.2564 725.58 54.0166 725.58 54.9091C725.58 55.8139 725.703 56.5833 725.949 57.2173C726.202 57.8513 726.556 58.3345 727.011 58.6669C727.467 58.9993 727.999 59.1655 728.608 59.1655C729.058 59.1655 729.461 59.0732 729.818 58.8885C730.181 58.7038 730.48 58.4361 730.714 58.0852C730.954 57.7282 731.111 57.3004 731.184 56.8018H734.896C734.835 57.8852 734.539 58.8393 734.01 59.6641C733.487 60.4827 732.763 61.1229 731.84 61.5845C730.917 62.0462 729.824 62.277 728.562 62.277ZM741.742 62.277C740.308 62.277 739.068 61.9723 738.021 61.3629C736.981 60.7474 736.178 59.8918 735.611 58.7962C735.045 57.6944 734.762 56.4171 734.762 54.9645C734.762 53.4995 735.045 52.2192 735.611 51.1236C736.178 50.0218 736.981 49.1662 738.021 48.5568C739.068 47.9413 740.308 47.6335 741.742 47.6335C743.176 47.6335 744.413 47.9413 745.454 48.5568C746.5 49.1662 747.306 50.0218 747.873 51.1236C748.439 52.2192 748.722 53.4995 748.722 54.9645C748.722 56.4171 748.439 57.6944 747.873 58.7962C747.306 59.8918 746.5 60.7474 745.454 61.3629C744.413 61.9723 743.176 62.277 741.742 62.277ZM741.761 59.2301C742.413 59.2301 742.958 59.0455 743.395 58.6761C743.832 58.3007 744.161 57.7898 744.383 57.1435C744.61 56.4972 744.724 55.7616 744.724 54.9368C744.724 54.112 744.61 53.3764 744.383 52.7301C744.161 52.0838 743.832 51.5729 743.395 51.1974C742.958 50.822 742.413 50.6342 741.761 50.6342C741.102 50.6342 740.548 50.822 740.099 51.1974C739.655 51.5729 739.32 52.0838 739.092 52.7301C738.871 53.3764 738.76 54.112 738.76 54.9368C738.76 55.7616 738.871 56.4972 739.092 57.1435C739.32 57.7898 739.655 58.3007 740.099 58.6761C740.548 59.0455 741.102 59.2301 741.761 59.2301ZM749.2 62V47.8182H752.948V50.3203H753.114C753.41 49.4893 753.902 48.8338 754.592 48.3537C755.281 47.8736 756.106 47.6335 757.066 47.6335C758.039 47.6335 758.867 47.8767 759.55 48.3629C760.233 48.843 760.689 49.4955 760.916 50.3203H761.064C761.353 49.5078 761.877 48.8584 762.634 48.3722C763.397 47.8797 764.299 47.6335 765.339 47.6335C766.662 47.6335 767.736 48.0552 768.561 48.8984C769.392 49.7356 769.808 50.9235 769.808 52.4624V62H765.884V53.2379C765.884 52.45 765.674 51.8591 765.256 51.4652C764.837 51.0713 764.314 50.8743 763.686 50.8743C762.972 50.8743 762.415 51.102 762.015 51.5575C761.615 52.0069 761.415 52.6009 761.415 53.3395V62H757.602V53.1548C757.602 52.4593 757.402 51.9053 757.002 51.4929C756.608 51.0805 756.087 50.8743 755.441 50.8743C755.004 50.8743 754.61 50.9851 754.259 51.2067C753.915 51.4221 753.641 51.7268 753.438 52.1207C753.234 52.5085 753.133 52.964 753.133 53.4872V62H749.2ZM773.134 62.2401C772.524 62.2401 772.001 62.0246 771.564 61.5938C771.133 61.1567 770.918 60.6335 770.918 60.0241C770.918 59.4209 771.133 58.9039 771.564 58.473C772.001 58.0421 772.524 57.8267 773.134 57.8267C773.724 57.8267 774.241 58.0421 774.685 58.473C775.128 58.9039 775.349 59.4209 775.349 60.0241C775.349 60.4304 775.245 60.8028 775.035 61.1413C774.832 61.4737 774.565 61.7415 774.232 61.9446C773.9 62.1416 773.534 62.2401 773.134 62.2401ZM776.573 62V43.0909H780.506V50.2003H780.626C780.798 49.8187 781.047 49.4309 781.374 49.0369C781.706 48.6368 782.137 48.3045 782.666 48.0398C783.202 47.7689 783.867 47.6335 784.661 47.6335C785.695 47.6335 786.649 47.9044 787.523 48.446C788.397 48.9815 789.096 49.791 789.619 50.8743C790.142 51.9515 790.404 53.3026 790.404 54.9276C790.404 56.5095 790.148 57.8452 789.637 58.9347C789.132 60.018 788.443 60.8397 787.569 61.3999C786.701 61.9538 785.729 62.2308 784.651 62.2308C783.888 62.2308 783.239 62.1046 782.703 61.8523C782.174 61.5999 781.74 61.2829 781.401 60.9013C781.063 60.5135 780.804 60.1226 780.626 59.7287H780.45V62H776.573ZM780.423 54.9091C780.423 55.7524 780.54 56.4879 780.774 57.1158C781.007 57.7436 781.346 58.233 781.789 58.5838C782.232 58.9285 782.771 59.1009 783.405 59.1009C784.045 59.1009 784.587 58.9254 785.03 58.5746C785.473 58.2176 785.809 57.7251 786.036 57.0973C786.27 56.4633 786.387 55.7339 786.387 54.9091C786.387 54.0904 786.273 53.3703 786.046 52.7486C785.818 52.1269 785.482 51.6406 785.039 51.2898C784.596 50.9389 784.051 50.7635 783.405 50.7635C782.765 50.7635 782.223 50.9328 781.78 51.2713C781.343 51.6098 781.007 52.09 780.774 52.7116C780.54 53.3333 780.423 54.0658 780.423 54.9091ZM790.948 62V47.8182H794.761V50.2926H794.909C795.167 49.4124 795.601 48.7476 796.211 48.2983C796.82 47.8428 797.522 47.6151 798.316 47.6151C798.513 47.6151 798.725 47.6274 798.953 47.652C799.181 47.6766 799.381 47.7105 799.553 47.7536V51.2436C799.368 51.1882 799.113 51.139 798.787 51.0959C798.461 51.0528 798.162 51.0312 797.891 51.0312C797.313 51.0312 796.795 51.1574 796.34 51.4098C795.891 51.656 795.534 52.0007 795.269 52.4439C795.01 52.8871 794.881 53.398 794.881 53.9766V62H790.948Z" fill="#0D0D0D"/>
<rect width="60" height="4" transform="translate(690 73)" fill="#0D0D0D"/>
</svg>
