<svg width="171" height="27" viewBox="0 0 171 27" fill="none" xmlns="http://www.w3.org/2000/svg">
<path d="M163.913 21.3974C162.373 21.3974 161.047 21.0854 159.936 20.4615C158.831 19.8312 157.98 18.9408 157.382 17.7905C156.784 16.6337 156.485 15.2657 156.485 13.6865C156.485 12.1463 156.784 10.7946 157.382 9.63128C157.98 8.46799 158.821 7.56141 159.906 6.91153C160.998 6.26165 162.279 5.93671 163.747 5.93671C164.735 5.93671 165.655 6.09593 166.506 6.41437C167.364 6.72631 168.111 7.19748 168.748 7.82786C169.391 8.45824 169.892 9.2511 170.249 10.2064C170.607 11.1552 170.785 12.2665 170.785 13.5403V14.6808H158.142V12.1073H166.876C166.876 11.5094 166.746 10.9798 166.487 10.5184C166.227 10.0569 165.866 9.69627 165.404 9.43631C164.95 9.16986 164.42 9.03664 163.816 9.03664C163.185 9.03664 162.626 9.18286 162.139 9.47531C161.658 9.76125 161.281 10.1479 161.008 10.6353C160.735 11.1163 160.595 11.6524 160.589 12.2438V14.6906C160.589 15.4315 160.725 16.0716 160.998 16.611C161.278 17.1504 161.671 17.5663 162.178 17.8588C162.685 18.1512 163.286 18.2974 163.981 18.2974C164.443 18.2974 164.865 18.2324 165.248 18.1025C165.632 17.9725 165.96 17.7775 166.233 17.5176C166.506 17.2576 166.714 16.9392 166.857 16.5623L170.698 16.8157C170.503 17.7385 170.103 18.5444 169.499 19.2333C168.901 19.9156 168.127 20.4485 167.179 20.832C166.236 21.2089 165.148 21.3974 163.913 21.3974Z" fill="#0D0D0D"/>
<path d="M157.291 6.13159V9.25102H148.273V6.13159H157.291ZM150.321 2.54425H154.473V16.5037C154.473 16.8871 154.532 17.1861 154.649 17.4005C154.766 17.6085 154.928 17.7547 155.136 17.8392C155.351 17.9237 155.598 17.9659 155.877 17.9659C156.072 17.9659 156.267 17.9497 156.462 17.9172C156.657 17.8782 156.806 17.8489 156.91 17.8294L157.563 20.9196C157.356 20.9846 157.063 21.0593 156.686 21.1438C156.309 21.2348 155.851 21.2901 155.312 21.3095C154.311 21.3485 153.433 21.2153 152.68 20.9099C151.932 20.6044 151.351 20.13 150.935 19.4866C150.519 18.8433 150.314 18.0309 150.321 17.0496V2.54425Z" fill="#0D0D0D"/>
<path d="M144.592 21.1049V6.13162H148.745V21.1049H144.592ZM146.678 4.20148C146.061 4.20148 145.531 3.99677 145.089 3.58734C144.654 3.17142 144.436 2.67426 144.436 2.09586C144.436 1.52397 144.654 1.03331 145.089 0.623887C145.531 0.207963 146.061 0 146.678 0C147.296 0 147.822 0.207963 148.257 0.623887C148.699 1.03331 148.92 1.52397 148.92 2.09586C148.92 2.67426 148.699 3.17142 148.257 3.58734C147.822 3.99677 147.296 4.20148 146.678 4.20148Z" fill="#0D0D0D"/>
<path d="M144.381 10.4014L140.579 10.6353C140.514 10.3104 140.374 10.018 140.16 9.758C139.945 9.49155 139.663 9.28034 139.312 9.12437C138.967 8.9619 138.555 8.88067 138.074 8.88067C137.43 8.88067 136.888 9.01714 136.446 9.29009C136.004 9.55654 135.783 9.91397 135.783 10.3624C135.783 10.7198 135.926 11.022 136.212 11.269C136.498 11.5159 136.988 11.7141 137.684 11.8636L140.394 12.4095C141.85 12.7085 142.935 13.1894 143.65 13.8523C144.365 14.5151 144.722 15.386 144.722 16.4648C144.722 17.4461 144.433 18.3072 143.854 19.048C143.283 19.7889 142.496 20.3673 141.495 20.7832C140.501 21.1927 139.354 21.3974 138.054 21.3974C136.072 21.3974 134.493 20.9847 133.317 20.1593C132.147 19.3275 131.461 18.1967 131.26 16.767L135.344 16.5525C135.468 17.1569 135.767 17.6183 136.241 17.9368C136.716 18.2487 137.323 18.4047 138.064 18.4047C138.792 18.4047 139.377 18.2649 139.819 17.9855C140.267 17.6995 140.495 17.3324 140.501 16.8839C140.495 16.507 140.335 16.1983 140.023 15.9579C139.711 15.7109 139.231 15.5224 138.581 15.3925L135.988 14.8758C134.525 14.5834 133.437 14.0765 132.722 13.3551C132.014 12.6337 131.659 11.7141 131.659 10.5964C131.659 9.63453 131.919 8.80593 132.439 8.11056C132.966 7.41519 133.703 6.87903 134.652 6.5021C135.607 6.12517 136.725 5.93671 138.006 5.93671C139.897 5.93671 141.385 6.33638 142.47 7.13573C143.562 7.93509 144.199 9.02364 144.381 10.4014Z" fill="#0D0D0D"/>
<path d="M117.294 21.1048V1.1405H121.447V8.64662H121.573C121.755 8.2437 122.019 7.83427 122.363 7.41835C122.714 6.99593 123.169 6.64499 123.728 6.36554C124.293 6.07959 124.995 5.93662 125.833 5.93662C126.925 5.93662 127.932 6.22257 128.855 6.79446C129.778 7.35986 130.516 8.21445 131.068 9.35824C131.621 10.4955 131.897 11.922 131.897 13.6377C131.897 15.3079 131.627 16.7181 131.088 17.8684C130.555 19.0122 129.827 19.8798 128.904 20.4712C127.988 21.0561 126.961 21.3485 125.824 21.3485C125.018 21.3485 124.332 21.2153 123.767 20.9489C123.208 20.6824 122.75 20.3477 122.392 19.9448C122.035 19.5354 121.762 19.1227 121.573 18.7068H121.388V21.1048H117.294ZM121.359 13.6182C121.359 14.5085 121.482 15.2852 121.729 15.948C121.976 16.6109 122.334 17.1276 122.802 17.498C123.27 17.8619 123.838 18.0439 124.508 18.0439C125.183 18.0439 125.755 17.8587 126.223 17.4882C126.691 17.1113 127.045 16.5914 127.286 15.9285C127.533 15.2592 127.656 14.489 127.656 13.6182C127.656 12.7539 127.536 11.9935 127.296 11.3371C127.055 10.6807 126.701 10.1673 126.233 9.79691C125.765 9.42648 125.19 9.24126 124.508 9.24126C123.832 9.24126 123.26 9.41998 122.792 9.77741C122.331 10.1348 121.976 10.6418 121.729 11.2981C121.482 11.9545 121.359 12.7279 121.359 13.6182Z" fill="#0D0D0D"/>
<path d="M110.378 21.3974C108.838 21.3974 107.512 21.0854 106.401 20.4615C105.296 19.8312 104.445 18.9408 103.847 17.7905C103.249 16.6337 102.95 15.2657 102.95 13.6865C102.95 12.1463 103.249 10.7946 103.847 9.63128C104.445 8.46799 105.287 7.56141 106.372 6.91153C107.464 6.26165 108.744 5.93671 110.213 5.93671C111.2 5.93671 112.12 6.09593 112.971 6.41437C113.829 6.72631 114.577 7.19748 115.213 7.82786C115.857 8.45824 116.357 9.2511 116.715 10.2064C117.072 11.1552 117.251 12.2665 117.251 13.5403V14.6808H104.607V12.1073H113.342C113.342 11.5094 113.212 10.9798 112.952 10.5184C112.692 10.0569 112.331 9.69627 111.87 9.43631C111.415 9.16986 110.885 9.03664 110.281 9.03664C109.65 9.03664 109.092 9.18286 108.604 9.47531C108.123 9.76125 107.746 10.1479 107.473 10.6353C107.2 11.1163 107.061 11.6524 107.054 12.2438V14.6906C107.054 15.4315 107.191 16.0716 107.464 16.611C107.743 17.1504 108.136 17.5663 108.643 17.8588C109.15 18.1512 109.751 18.2974 110.447 18.2974C110.908 18.2974 111.33 18.2324 111.714 18.1025C112.097 17.9725 112.425 17.7775 112.698 17.5176C112.971 17.2576 113.179 16.9392 113.322 16.5623L117.163 16.8157C116.968 17.7385 116.568 18.5444 115.964 19.2333C115.366 19.9156 114.593 20.4485 113.644 20.832C112.702 21.2089 111.613 21.3974 110.378 21.3974Z" fill="#0D0D0D"/>
<path d="M84.0372 21.1048L78.3247 1.1405H82.9356L86.2403 15.0122H86.406L90.0518 1.1405H93.9998L97.6359 15.0414H97.8114L101.116 1.1405H105.727L100.014 21.1048H95.9007L92.0989 8.05198H91.943L88.1509 21.1048H84.0372Z" fill="#0D0D0D"/>
<path d="M69.0194 21.3974C67.4792 21.3974 66.1535 21.0854 65.0422 20.4615C63.9374 19.8312 63.086 18.9408 62.4881 17.7905C61.8903 16.6337 61.5913 15.2657 61.5913 13.6865C61.5913 12.1463 61.8903 10.7946 62.4881 9.63128C63.086 8.46799 63.9276 7.56141 65.0129 6.91153C66.1047 6.26165 67.385 5.93671 68.8537 5.93671C69.8415 5.93671 70.7611 6.09593 71.6125 6.41437C72.4703 6.72631 73.2177 7.19748 73.8545 7.82786C74.4979 8.45824 74.9983 9.2511 75.3558 10.2064C75.7132 11.1552 75.8919 12.2665 75.8919 13.5403V14.6808H63.2485V12.1073H71.9829C71.9829 11.5094 71.8529 10.9798 71.593 10.5184C71.333 10.0569 70.9723 9.69627 70.5109 9.43631C70.056 9.16986 69.5263 9.03664 68.922 9.03664C68.2916 9.03664 67.7327 9.18286 67.2453 9.47531C66.7644 9.76125 66.3874 10.1479 66.1145 10.6353C65.8415 11.1163 65.7018 11.6524 65.6953 12.2438V14.6906C65.6953 15.4315 65.8318 16.0716 66.1047 16.611C66.3842 17.1504 66.7774 17.5663 67.2843 17.8588C67.7912 18.1512 68.3923 18.2974 69.0877 18.2974C69.5491 18.2974 69.9715 18.2324 70.3549 18.1025C70.7384 17.9725 71.0666 17.7775 71.3395 17.5176C71.6125 17.2576 71.8204 16.9392 71.9634 16.5623L75.8042 16.8157C75.6092 17.7385 75.2095 18.5444 74.6052 19.2333C74.0073 19.9156 73.2339 20.4485 72.2851 20.832C71.3428 21.2089 70.2542 21.3974 69.0194 21.3974Z" fill="#0D0D0D"/>
<path d="M61.6146 1.1405V21.1048H57.4619V1.1405H61.6146Z" fill="#0D0D0D"/>
<path d="M42.8354 26.7199V6.13167H46.9297V8.64671H47.1149C47.2969 8.24378 47.5601 7.83436 47.9045 7.41843C48.2555 6.99601 48.7104 6.64508 49.2693 6.36563C49.8347 6.07968 50.5365 5.93671 51.3749 5.93671C52.4667 5.93671 53.474 6.22265 54.3968 6.79455C55.3197 7.35994 56.0573 8.21454 56.6097 9.35833C57.1621 10.4956 57.4383 11.9221 57.4383 13.6378C57.4383 15.308 57.1686 16.7182 56.6292 17.8685C56.0963 19.0123 55.3684 19.8799 54.4456 20.4713C53.5292 21.0562 52.5024 21.3486 51.3651 21.3486C50.5593 21.3486 49.8737 21.2154 49.3083 20.9489C48.7494 20.6825 48.2912 20.3478 47.9338 19.9449C47.5763 19.5355 47.3034 19.1228 47.1149 18.7069H46.9882V26.7199H42.8354ZM46.9005 13.6183C46.9005 14.5086 47.0239 15.2852 47.2709 15.9481C47.5178 16.611 47.8753 17.1276 48.3432 17.4981C48.8111 17.862 49.3797 18.044 50.0491 18.044C50.725 18.044 51.2969 17.8588 51.7648 17.4883C52.2327 17.1114 52.5869 16.5915 52.8274 15.9286C53.0743 15.2592 53.1978 14.4891 53.1978 13.6183C53.1978 12.754 53.0776 11.9936 52.8371 11.3372C52.5967 10.6808 52.2425 10.1674 51.7746 9.797C51.3066 9.42656 50.7315 9.24135 50.0491 9.24135C49.3732 9.24135 48.8013 9.42006 48.3334 9.7775C47.872 10.1349 47.5178 10.6418 47.2709 11.2982C47.0239 11.9546 46.9005 12.728 46.9005 13.6183Z" fill="#0D0D0D"/>
<path d="M20.5425 21.1049V6.13167H24.5003V8.77343H24.6757C24.9877 7.8961 25.5076 7.20397 26.2354 6.69707C26.9633 6.19016 27.8341 5.93671 28.848 5.93671C29.8748 5.93671 30.7489 6.19341 31.4702 6.70681C32.1916 7.21372 32.6725 7.90259 32.913 8.77343H33.0689C33.3744 7.91559 33.9268 7.22997 34.7261 6.71656C35.532 6.19666 36.484 5.93671 37.5823 5.93671C38.9796 5.93671 40.1136 6.38188 40.9845 7.27221C41.8618 8.15605 42.3005 9.41032 42.3005 11.035V21.1049H38.1575V11.8539C38.1575 11.022 37.9365 10.3981 37.4946 9.98221C37.0527 9.56629 36.5003 9.35833 35.8374 9.35833C35.0836 9.35833 34.4954 9.59878 34.073 10.0797C33.6506 10.5541 33.4394 11.1812 33.4394 11.9611V21.1049H29.4133V11.7661C29.4133 11.0318 29.2021 10.4469 28.7797 10.0115C28.3638 9.57604 27.8146 9.35833 27.1323 9.35833C26.6709 9.35833 26.2549 9.47531 25.8845 9.70926C25.5206 9.93672 25.2314 10.2584 25.0169 10.6743C24.8024 11.0838 24.6952 11.5647 24.6952 12.1171V21.1049H20.5425Z" fill="#0D0D0D"/>
<path d="M15.8083 21.1049V6.13162H19.9611V21.1049H15.8083ZM17.8944 4.20148C17.277 4.20148 16.7474 3.99677 16.3055 3.58734C15.8701 3.17142 15.6523 2.67426 15.6523 2.09586C15.6523 1.52397 15.8701 1.03331 16.3055 0.623887C16.7474 0.207963 17.277 0 17.8944 0C18.5118 0 19.0382 0.207963 19.4736 0.623887C19.9156 1.03331 20.1365 1.52397 20.1365 2.09586C20.1365 2.67426 19.9156 3.17142 19.4736 3.58734C19.0382 3.99677 18.5118 4.20148 17.8944 4.20148Z" fill="#0D0D0D"/>
<path d="M11.4736 6.88226C11.3957 6.0959 11.061 5.48502 10.4696 5.0496C9.87818 4.61418 9.07558 4.39646 8.06177 4.39646C7.37289 4.39646 6.79125 4.49395 6.31684 4.68891C5.84243 4.87738 5.47849 5.14058 5.22504 5.47852C4.97808 5.81645 4.85461 6.19988 4.85461 6.6288C4.84161 6.98624 4.91635 7.29818 5.07882 7.56463C5.24778 7.83108 5.47849 8.06179 5.77094 8.25676C6.06338 8.44522 6.40132 8.61094 6.78475 8.75391C7.16818 8.89039 7.57761 9.00737 8.01303 9.10485L9.8067 9.53377C10.6775 9.72873 11.4769 9.98869 12.2048 10.3136C12.9326 10.6386 13.563 11.0382 14.0959 11.5127C14.6288 11.9871 15.0415 12.546 15.3339 13.1893C15.6329 13.8327 15.7856 14.5703 15.7921 15.4022C15.7856 16.624 15.4737 17.6833 14.8563 18.5801C14.2454 19.4704 13.3615 20.1626 12.2048 20.6565C11.0545 21.1439 9.66697 21.3876 8.04227 21.3876C6.43057 21.3876 5.02682 21.1406 3.83105 20.6467C2.64176 20.1528 1.71244 19.4217 1.04306 18.4534C0.38018 17.4786 0.0324941 16.273 0 14.8368H4.0845C4.12999 15.5062 4.3217 16.0651 4.65964 16.5135C5.00408 16.9554 5.46224 17.2901 6.03414 17.5176C6.61253 17.7385 7.26566 17.849 7.99353 17.849C8.7084 17.849 9.32903 17.745 9.85544 17.537C10.3883 17.3291 10.801 17.0399 11.0935 16.6695C11.3859 16.299 11.5321 15.8734 11.5321 15.3924C11.5321 14.944 11.3989 14.5671 11.1325 14.2617C10.8725 13.9562 10.4891 13.6963 9.98216 13.4818C9.48176 13.2673 8.86762 13.0724 8.13975 12.8969L5.9659 12.351C4.28271 11.9416 2.95371 11.3014 1.97889 10.4306C1.00407 9.55977 0.519904 8.38673 0.526403 6.9115C0.519904 5.70272 0.841595 4.64667 1.49148 3.74334C2.14785 2.84 3.04794 2.13488 4.19173 1.62797C5.33552 1.12107 6.63528 0.867615 8.09101 0.867615C9.57274 0.867615 10.866 1.12107 11.9708 1.62797C13.0821 2.13488 13.9464 2.84 14.5638 3.74334C15.1812 4.64667 15.4996 5.69298 15.5191 6.88226H11.4736Z" fill="#0D0D0D"/>
</svg>
